<svg width="37" height="37" viewBox="0 0 37 37" fill="none" xmlns="http://www.w3.org/2000/svg">
<path d="M27.9861 4.10055L18.736 0.0514828C18.5787 -0.0171609 18.3999 -0.0171609 18.2426 0.0514828L8.99256 4.10055C8.76794 4.19859 8.62268 4.42034 8.62256 4.66542V14.3472C8.6259 16.523 9.67146 18.5655 11.4346 19.8405L17.8276 24.4513C18.2225 24.7371 18.7562 24.7371 19.151 24.4513L25.544 19.8411C27.3072 18.5661 28.3527 16.5236 28.3561 14.3478V4.66542C28.3559 4.42034 28.2107 4.19859 27.9861 4.10055ZM27.1227 14.3478C27.1199 16.1274 26.2647 17.798 24.8225 18.8409L18.4893 23.4085L12.1561 18.8409C10.714 17.798 9.85873 16.1274 9.8559 14.3478V5.06873L18.4893 1.28976L27.1227 5.06873V14.3478Z" fill="#CC4125"/>
<path d="M18.1534 3.05148L11.37 6.02137C11.1454 6.11941 11.0001 6.34116 11 6.58625V14.6554C11.0019 16.039 11.6669 17.3378 12.7883 18.1482L18.0393 21.9358C18.2547 22.0912 18.5454 22.0912 18.7608 21.9358L24.0118 18.1482C25.1332 17.3378 25.7982 16.039 25.8001 14.6554V6.58625C25.8 6.34116 25.6548 6.11941 25.4301 6.02137L18.6467 3.05148C18.4894 2.98284 18.3107 2.98284 18.1534 3.05148ZM24.5668 6.98893V14.6554C24.5649 15.6427 24.0903 16.5694 23.2903 17.148L18.4001 20.6754L13.5099 17.148C12.7098 16.5694 12.2352 15.6427 12.2333 14.6554V6.98893L18.4001 4.28976L24.5668 6.98893Z" fill="#CC4125"/>
<path d="M5.09838 20.4733L3.76451 17.3566C3.48086 16.7141 2.87595 16.2716 2.17766 16.196C1.47936 16.1204 0.793771 16.4231 0.379134 16.99C-0.0355026 17.5569 -0.11619 18.302 0.167467 18.9445L2.5842 24.2609C2.91025 24.9806 3.36382 25.6353 3.923 26.1935L7.72355 29.9947C7.50951 30.2215 7.38998 30.5215 7.38931 30.8334V35.7667C7.38931 36.4479 7.9415 37.0001 8.62266 37.0001H15.406C16.0872 37.0001 16.6394 36.4479 16.6394 35.7667V30.8334C16.6394 30.1522 16.0872 29.6 15.406 29.6V28.4524C15.4249 26.9919 14.9485 25.5681 14.0543 24.4132C13.5301 23.7237 12.8156 23.2026 11.9989 22.9141C10.7001 22.3684 9.50565 21.6018 8.46849 20.6484C7.50577 19.8555 6.1381 19.7844 5.09838 20.4733ZM15.406 35.7667H8.62266V30.8334H15.406V35.7667ZM13.0917 25.1834C13.8105 26.1199 14.1915 27.272 14.1727 28.4524V29.6H9.07344L4.79497 25.3215C4.34057 24.8678 3.97184 24.3357 3.70655 23.7509L1.28981 18.4346C1.18667 18.2076 1.20587 17.9439 1.34077 17.7343C1.47567 17.5247 1.7078 17.398 1.95705 17.3979C2.25037 17.3977 2.51545 17.5727 2.63045 17.8425L4.00995 21.0597C4.37627 21.9181 4.90427 22.6979 5.5652 23.3568L8.38215 26.1744C8.53698 26.3347 8.76626 26.399 8.98187 26.3426C9.19748 26.2861 9.36586 26.1178 9.42229 25.9021C9.47873 25.6865 9.41444 25.4573 9.25413 25.3024L6.43717 22.4849C6.15391 22.2023 5.89922 21.8924 5.67681 21.5598C6.26903 21.1041 7.09752 21.1179 7.67421 21.5931C8.82699 22.6511 10.1593 23.4948 11.6086 24.0845C12.1991 24.2992 12.7143 24.681 13.0917 25.1834Z" fill="#CC4125"/>
<path d="M13.5561 32.6831H12.9394C12.5988 32.6831 12.3228 32.9592 12.3228 33.2998C12.3228 33.6404 12.5988 33.9164 12.9394 33.9164H13.5561C13.8967 33.9164 14.1728 33.6404 14.1728 33.2998C14.1728 32.9592 13.8967 32.6831 13.5561 32.6831Z" fill="#CC4125"/>
<path d="M34.3941 24.261L36.8108 18.9446C37.1079 18.2999 37.0344 17.5451 36.6185 16.9698C36.2025 16.3945 35.5087 16.0882 34.8033 16.1684C34.098 16.2485 33.4906 16.7028 33.2144 17.3567L31.8836 20.4617C30.8403 19.7762 29.4719 19.8512 28.5098 20.6467C27.4726 21.6001 26.2781 22.3666 24.9793 22.9123C24.1626 23.2008 23.4482 23.722 22.924 24.4114C22.0294 25.5669 21.5529 26.9914 21.5722 28.4525V29.6001C20.8911 29.6001 20.3389 30.1523 20.3389 30.8335V35.7668C20.3389 36.448 20.8911 37.0002 21.5722 37.0002H28.3556C29.0368 37.0002 29.5889 36.448 29.5889 35.7668V30.8335C29.5883 30.5216 29.4688 30.2217 29.2547 29.9948L33.0553 26.1936C33.6144 25.6354 34.068 24.9807 34.3941 24.261ZM28.3556 35.7668H21.5722V30.8335H28.3556V35.7668ZM27.9048 29.6001H22.8056V28.4525C22.7869 27.2723 23.1679 26.1205 23.8866 25.1841C24.2631 24.6821 24.7772 24.3001 25.3666 24.0846C26.8161 23.495 28.1487 22.6513 29.3016 21.5933C29.8776 21.1144 30.7085 21.0983 31.3027 21.5544C31.0796 21.8894 30.8237 22.2014 30.5386 22.4856L27.7217 25.3032C27.488 25.5451 27.4913 25.9297 27.7292 26.1676C27.967 26.4055 28.3517 26.4088 28.5936 26.1751L31.4106 23.3576C32.0715 22.6987 32.5995 21.9188 32.9658 21.0604L34.3453 17.8427C34.4607 17.5732 34.7256 17.3985 35.0187 17.3987C35.268 17.3987 35.5001 17.5254 35.635 17.735C35.7699 17.9446 35.7891 18.2084 35.686 18.4353L33.2692 23.7516C33.0039 24.3364 32.6352 24.8685 32.1808 25.3223L27.9048 29.6001Z" fill="#CC4125"/>
<path d="M24.04 32.6831H23.4233C23.0827 32.6831 22.8066 32.9592 22.8066 33.2998C22.8066 33.6404 23.0827 33.9164 23.4233 33.9164H24.04C24.3806 33.9164 24.6567 33.6404 24.6567 33.2998C24.6567 32.9592 24.3806 32.6831 24.04 32.6831Z" fill="#CC4125"/>
<path d="M15.0697 13.381C14.7973 13.1766 14.4107 13.2319 14.2064 13.5043C14.002 13.7768 14.0572 14.1633 14.3297 14.3677L16.7964 16.2177C16.9031 16.2977 17.033 16.341 17.1664 16.341C17.2013 16.3409 17.2362 16.338 17.2706 16.3324C17.4376 16.3037 17.5855 16.2076 17.6795 16.0666L22.6129 8.66653C22.7351 8.48322 22.7503 8.24861 22.6527 8.05107C22.5551 7.85352 22.3595 7.72306 22.1396 7.70881C21.9198 7.69457 21.709 7.79872 21.5867 7.98202L17.0147 14.84L15.0697 13.381Z" fill="#CC4125"/>
</svg>
