<svg width="49" height="36" viewBox="0 0 49 36" fill="none" xmlns="http://www.w3.org/2000/svg">
<path d="M35.3818 32.9299H30.5695V2.45188C30.5695 2.29996 30.5135 2.15336 30.4123 2.04011C30.311 1.92685 30.1716 1.85488 30.0206 1.83794L13.7713 0.00388954C13.6848 -0.00585702 13.5973 0.00276392 13.5143 0.0291887C13.4314 0.0556134 13.355 0.0992464 13.2901 0.157233C13.2252 0.215219 13.1733 0.286252 13.1378 0.365685C13.1022 0.445118 13.0839 0.531161 13.0839 0.618184V1.8337H6.04863C5.88468 1.8337 5.72744 1.89883 5.61151 2.01476C5.49558 2.13069 5.43045 2.28793 5.43045 2.45188V32.9299H0.61818C0.454228 32.9299 0.296992 32.9951 0.181061 33.111C0.0651297 33.2269 0 33.3842 0 33.5481C0 33.7121 0.0651297 33.8693 0.181061 33.9852C0.296992 34.1012 0.454228 34.1663 0.61818 34.1663H13.0839V35.3818C13.0839 35.5458 13.149 35.703 13.2649 35.8189C13.3809 35.9349 13.5381 36 13.702 36C13.7257 36.0002 13.7493 35.9989 13.7727 35.9961L29.9867 34.1663H35.3829C35.5468 34.1663 35.704 34.1012 35.82 33.9852C35.9359 33.8693 36.001 33.7121 36.001 33.5481C36.001 33.3842 35.9359 33.2269 35.82 33.111C35.704 32.9951 35.5468 32.9299 35.3829 32.9299H35.3818ZM6.66681 3.07006H13.0839V4.65967H8.87424C8.71029 4.65967 8.55305 4.7248 8.43712 4.84073C8.32119 4.95666 8.25606 5.1139 8.25606 5.27785V32.9299H6.66645L6.66681 3.07006ZM9.49277 32.9299V5.89603H13.0839V32.9299H9.49277ZM14.3202 1.30984L29.3332 3.00542V32.996L14.3202 34.6916V1.30984Z" fill="#7DE84A"/>
<path d="M16.9852 16.1603C16.6214 16.1603 16.2657 16.2682 15.9631 16.4703C15.6606 16.6725 15.4248 16.9598 15.2855 17.296C15.1463 17.6321 15.1099 18.002 15.1809 18.3589C15.2518 18.7158 15.4271 19.0436 15.6843 19.3008C15.9416 19.5581 16.2694 19.7334 16.6263 19.8043C16.9832 19.8753 17.3531 19.8389 17.6892 19.6996C18.0254 19.5604 18.3127 19.3246 18.5149 19.0221C18.717 18.7195 18.8249 18.3638 18.8249 18C18.8244 17.5122 18.6303 17.0446 18.2855 16.6997C17.9406 16.3548 17.473 16.1608 16.9852 16.1603ZM16.9852 18.6033C16.8659 18.6033 16.7492 18.5679 16.65 18.5016C16.5508 18.4353 16.4735 18.3411 16.4278 18.2309C16.3821 18.1206 16.3702 17.9993 16.3935 17.8823C16.4167 17.7652 16.4742 17.6577 16.5586 17.5734C16.643 17.489 16.7505 17.4315 16.8675 17.4082C16.9845 17.385 17.1059 17.3969 17.2161 17.4426C17.3263 17.4882 17.4206 17.5656 17.4869 17.6648C17.5532 17.764 17.5886 17.8807 17.5886 18C17.5884 18.1599 17.5247 18.3133 17.4116 18.4264C17.2985 18.5395 17.1452 18.6031 16.9852 18.6033Z" fill="#7DE84A"/>
<path d="M48.2341 14.515C48.1086 14.2033 47.8104 14 47.4812 14C42.0155 14 36.4162 15.8233 33.8659 18.4333C32.6632 19.6649 32 21.2999 32 23.0399C32 24.2415 32.3357 25.3865 32.9289 26.3898C32.3634 27.5048 32 28.6831 32 29.8347C32 30.2947 32.365 30.6681 32.8148 30.6681C33.2646 30.6681 33.6296 30.2947 33.6296 29.8347C33.6296 29.1464 33.7909 28.4598 34.0549 27.7948C34.9871 28.6298 36.3217 28.9964 37.7248 28.9964C39.8433 28.9964 42.0824 28.2031 43.1693 27.0898C45.1688 25.0448 45.6756 22.5249 46.1238 20.3016C46.5198 18.3416 46.8603 16.6483 48.0581 15.4233C48.2911 15.185 48.3612 14.8267 48.2341 14.515ZM44.5268 19.9666C44.1063 22.0582 43.6712 24.2198 42.0155 25.9131C40.6972 27.2614 36.5857 28.0731 35.018 26.4715C34.9577 26.4098 34.9154 26.3381 34.86 26.2748C36.3282 24.0282 38.6683 22.3349 39.3332 22.3349C39.783 22.3349 40.148 21.9615 40.148 21.5015C40.148 21.0416 39.783 20.6682 39.3332 20.6682C38.0181 20.6682 35.6356 22.4082 33.9425 24.7448C33.7453 24.2065 33.6296 23.6348 33.6296 23.0415C33.6296 21.7465 34.1234 20.5299 35.018 19.6132C36.7438 17.8466 40.8879 16.0616 45.8239 15.725C45.1183 17.0316 44.8201 18.5166 44.5268 19.9666Z" fill="#7DE84A"/>
</svg>
