<svg width="37" height="37" viewBox="0 0 37 37" fill="none" xmlns="http://www.w3.org/2000/svg">
<path d="M27.9861 4.10055L18.736 0.0514828C18.5787 -0.0171609 18.3999 -0.0171609 18.2426 0.0514828L8.99256 4.10055C8.76794 4.19859 8.62268 4.42034 8.62256 4.66542V14.3472C8.6259 16.523 9.67146 18.5655 11.4346 19.8405L17.8276 24.4513C18.2225 24.7371 18.7562 24.7371 19.151 24.4513L25.544 19.8411C27.3072 18.5661 28.3527 16.5236 28.3561 14.3478V4.66542C28.3559 4.42034 28.2107 4.19859 27.9861 4.10055ZM27.1227 14.3478C27.1199 16.1274 26.2647 17.798 24.8225 18.8409L18.4893 23.4085L12.1561 18.8409C10.714 17.798 9.85873 16.1274 9.8559 14.3478V5.06873L18.4893 1.28976L27.1227 5.06873V14.3478Z" fill="#4A86E8"/>
<path d="M18.2423 2.74387L11.4589 5.71376C11.2342 5.81179 11.089 6.03354 11.0889 6.27863V14.3478C11.0908 15.7314 11.7558 17.0302 12.8772 17.8406L18.1282 21.6282C18.3436 21.7836 18.6343 21.7836 18.8497 21.6282L24.1006 17.8406C25.2221 17.0302 25.8871 15.7314 25.889 14.3478V6.27863C25.8889 6.03354 25.7436 5.81179 25.519 5.71376L18.7356 2.74387C18.5783 2.67522 18.3995 2.67522 18.2423 2.74387ZM24.6557 6.68132V14.3478C24.6538 15.3351 24.1792 16.2618 23.3791 16.8404L18.4889 20.3677L13.5987 16.8404C12.7987 16.2618 12.3241 15.3351 12.3222 14.3478V6.68132L18.4889 3.98214L24.6557 6.68132Z" fill="#4A86E8"/>
<path d="M5.09838 20.4733L3.76451 17.3566C3.48086 16.7141 2.87595 16.2716 2.17766 16.196C1.47936 16.1204 0.793771 16.4231 0.379134 16.99C-0.0355026 17.5569 -0.11619 18.302 0.167467 18.9445L2.5842 24.2609C2.91025 24.9806 3.36382 25.6353 3.923 26.1935L7.72355 29.9947C7.50951 30.2215 7.38998 30.5215 7.38931 30.8334V35.7667C7.38931 36.4479 7.9415 37.0001 8.62266 37.0001H15.406C16.0872 37.0001 16.6394 36.4479 16.6394 35.7667V30.8334C16.6394 30.1522 16.0872 29.6 15.406 29.6V28.4524C15.4249 26.9919 14.9485 25.5681 14.0543 24.4132C13.5301 23.7237 12.8156 23.2026 11.9989 22.9141C10.7001 22.3684 9.50565 21.6018 8.46849 20.6484C7.50577 19.8555 6.1381 19.7844 5.09838 20.4733ZM15.406 35.7667H8.62266V30.8334H15.406V35.7667ZM13.0917 25.1834C13.8105 26.1199 14.1915 27.272 14.1727 28.4524V29.6H9.07344L4.79497 25.3215C4.34057 24.8678 3.97184 24.3357 3.70655 23.7509L1.28981 18.4346C1.18667 18.2076 1.20587 17.9439 1.34077 17.7343C1.47567 17.5247 1.7078 17.398 1.95705 17.3979C2.25037 17.3977 2.51545 17.5727 2.63045 17.8425L4.00995 21.0597C4.37627 21.9181 4.90427 22.6979 5.5652 23.3568L8.38215 26.1744C8.53698 26.3347 8.76626 26.399 8.98187 26.3426C9.19748 26.2861 9.36586 26.1178 9.42229 25.9021C9.47873 25.6865 9.41444 25.4573 9.25413 25.3024L6.43717 22.4849C6.15391 22.2023 5.89922 21.8924 5.67681 21.5598C6.26903 21.1041 7.09752 21.1179 7.67421 21.5931C8.82699 22.6511 10.1593 23.4948 11.6086 24.0845C12.1991 24.2992 12.7143 24.681 13.0917 25.1834Z" fill="#4A86E8"/>
<path d="M13.5561 32.6833H12.9394C12.5988 32.6833 12.3228 32.9594 12.3228 33.3C12.3228 33.6406 12.5988 33.9167 12.9394 33.9167H13.5561C13.8967 33.9167 14.1728 33.6406 14.1728 33.3C14.1728 32.9594 13.8967 32.6833 13.5561 32.6833Z" fill="#4A86E8"/>
<path d="M34.3941 24.2607L36.8108 18.9444C37.1079 18.2997 37.0344 17.5448 36.6185 16.9696C36.2025 16.3943 35.5087 16.088 34.8033 16.1681C34.098 16.2483 33.4906 16.7025 33.2144 17.3565L31.8836 20.4614C30.8403 19.776 29.4719 19.851 28.5098 20.6464C27.4726 21.5998 26.2781 22.3664 24.9793 22.9121C24.1626 23.2006 23.4482 23.7217 22.924 24.4112C22.0294 25.5666 21.5529 26.9911 21.5722 28.4523V29.5999C20.8911 29.5999 20.3389 30.1521 20.3389 30.8332V35.7666C20.3389 36.4478 20.8911 36.9999 21.5722 36.9999H28.3556C29.0368 36.9999 29.5889 36.4478 29.5889 35.7666V30.8332C29.5883 30.5213 29.4688 30.2214 29.2547 29.9945L33.0553 26.1934C33.6144 25.6352 34.068 24.9804 34.3941 24.2607ZM28.3556 35.7666H21.5722V30.8332H28.3556V35.7666ZM27.9048 29.5999H22.8056V28.4523C22.7869 27.2721 23.1679 26.1202 23.8866 25.1839C24.2631 24.6818 24.7772 24.2999 25.3666 24.0844C26.8161 23.4948 28.1487 22.6511 29.3016 21.593C29.8776 21.1142 30.7085 21.0981 31.3027 21.5542C31.0796 21.8892 30.8237 22.2011 30.5386 22.4853L27.7217 25.3029C27.488 25.5449 27.4913 25.9295 27.7292 26.1674C27.967 26.4052 28.3517 26.4086 28.5936 26.1749L31.4106 23.3573C32.0715 22.6984 32.5995 21.9186 32.9658 21.0602L34.3453 17.8424C34.4607 17.5729 34.7256 17.3982 35.0187 17.3984C35.268 17.3985 35.5001 17.5252 35.635 17.7348C35.7699 17.9444 35.7891 18.2081 35.686 18.435L33.2692 23.7514C33.0039 24.3362 32.6352 24.8683 32.1808 25.322L27.9048 29.5999Z" fill="#4A86E8"/>
<path d="M24.04 32.6833H23.4233C23.0827 32.6833 22.8066 32.9594 22.8066 33.3C22.8066 33.6406 23.0827 33.9167 23.4233 33.9167H24.04C24.3806 33.9167 24.6567 33.6406 24.6567 33.3C24.6567 32.9594 24.3806 32.6833 24.04 32.6833Z" fill="#4A86E8"/>
<path d="M15.1591 13.0731C14.8866 12.8688 14.5001 12.924 14.2957 13.1965C14.0914 13.4689 14.1466 13.8554 14.4191 14.0598L16.8858 15.9098C16.9925 15.9899 17.1223 16.0331 17.2558 16.0331C17.2907 16.033 17.3255 16.0301 17.36 16.0245C17.527 15.9959 17.6749 15.8997 17.7688 15.7587L22.7022 8.35866C22.8245 8.17536 22.8397 7.94075 22.7421 7.74321C22.6445 7.54566 22.4489 7.41519 22.229 7.40095C22.0091 7.38671 21.7983 7.49086 21.6761 7.67416L17.1041 14.5322L15.1591 13.0731Z" fill="#4A86E8"/>
</svg>
