<svg width="45" height="35" viewBox="0 0 45 35" fill="none" xmlns="http://www.w3.org/2000/svg">
<path d="M32.7817 27.3928C31.5475 27.3928 30.5469 28.4148 30.5469 29.6756C30.5469 30.9363 31.5475 31.9583 32.7817 31.9583C34.016 31.9583 35.0166 30.9363 35.0166 29.6756C35.0166 28.4148 34.016 27.3928 32.7817 27.3928ZM32.7817 30.4365C32.3703 30.4365 32.0368 30.0958 32.0368 29.6756C32.0368 29.2553 32.3703 28.9147 32.7817 28.9147C33.1932 28.9147 33.5267 29.2553 33.5267 29.6756C33.5267 30.0958 33.1932 30.4365 32.7817 30.4365Z" fill="#4A86E8"/>
<path d="M8.19482 27.3928C6.96054 27.3928 5.95996 28.4148 5.95996 29.6756C5.95996 30.9363 6.96054 31.9583 8.19482 31.9583C9.42911 31.9583 10.4297 30.9363 10.4297 29.6756C10.4297 28.4148 9.42911 27.3928 8.19482 27.3928ZM8.19482 30.4365C7.7834 30.4365 7.44987 30.0958 7.44987 29.6756C7.44987 29.2553 7.7834 28.9147 8.19482 28.9147C8.60625 28.9147 8.93978 29.2553 8.93978 29.6756C8.93978 30.0958 8.60625 30.4365 8.19482 30.4365Z" fill="#4A86E8"/>
<path d="M39.8066 6.73944C39.463 5.88283 38.6457 5.32415 37.7394 5.32641H29.0532V2.28275C29.0532 1.02202 28.0526 0 26.8184 0H2.23486C1.00058 0 0 1.02202 0 2.28275V23.5884C0.002259 24.2614 0.297004 24.8987 0.804551 25.3279C-0.00266452 26.2124 -0.219386 27.5017 0.252759 28.6105C0.724904 29.7194 1.79598 30.4366 2.97982 30.4366H3.03941C3.40764 33.0556 5.60422 35 8.1945 35C10.7848 35 12.9814 33.0556 13.3496 30.4366H27.6229C27.9911 33.0556 30.1877 35 32.778 35C35.3683 35 37.5648 33.0556 37.9331 30.4366H42.4624C43.6967 30.4366 44.6973 29.4146 44.6973 28.1539V19.9261C44.6978 19.2302 44.5644 18.5409 44.3047 17.8975L39.8066 6.73944ZM38.4285 7.31925L42.9265 18.4781C42.9936 18.6553 43.0477 18.8374 43.0882 19.0229H34.2679C33.8565 19.0229 33.5229 18.6822 33.5229 18.262V6.84825H37.7394C38.0413 6.84811 38.3134 7.03413 38.4285 7.31925ZM11.8373 25.8712H29.1352C28.317 26.6881 27.7854 27.7579 27.6229 28.9148H13.3496C13.1871 27.7579 12.6555 26.6881 11.8373 25.8712ZM1.48991 2.28275C1.48991 1.86251 1.82344 1.52183 2.23486 1.52183H26.8184C27.2298 1.52183 27.5633 1.86251 27.5633 2.28275V24.3493H2.23486C1.82344 24.3493 1.48991 24.0086 1.48991 23.5884V2.28275ZM1.9272 28.4682C1.50185 28.0329 1.37473 27.379 1.60503 26.8109C1.83532 26.2427 2.37777 25.8719 2.97982 25.8712H4.55167C3.73346 26.6881 3.20192 27.7579 3.03941 28.9148H2.97982C2.58457 28.9158 2.20544 28.7549 1.9272 28.4682ZM8.1945 33.4803C6.13736 33.4803 4.46973 31.7769 4.46973 29.6757C4.46973 27.5745 6.13736 25.8712 8.1945 25.8712C10.2516 25.8712 11.9193 27.5745 11.9193 29.6757C11.9168 31.7759 10.2506 33.4778 8.1945 33.4803ZM32.778 33.4803C30.7209 33.4803 29.0532 31.7769 29.0532 29.6757C29.0532 27.5745 30.7209 25.8712 32.778 25.8712C34.8351 25.8712 36.5028 27.5745 36.5028 29.6757C36.5003 31.7759 34.8341 33.4778 32.778 33.4803ZM42.4624 28.9148H37.9331C37.5631 26.2966 35.3679 24.3524 32.778 24.3493H29.0532V6.84825H32.033V18.262C32.033 19.5227 33.0336 20.5447 34.2679 20.5447H43.2074V22.0666H42.4624C42.051 22.0666 41.7174 22.4072 41.7174 22.8275C41.7174 23.2477 42.051 23.5884 42.4624 23.5884H43.2074V25.1102H42.4624C42.051 25.1102 41.7174 25.4509 41.7174 25.8712C41.7174 26.2914 42.051 26.6321 42.4624 26.6321H43.2074V28.1539C43.2074 28.5741 42.8738 28.9148 42.4624 28.9148Z" fill="#4A86E8"/>
<path d="M3.72396 4.56553H5.95882C6.37025 4.56553 6.70378 4.22486 6.70378 3.80462C6.70378 3.38437 6.37025 3.0437 5.95882 3.0437H3.72396C3.31253 3.0437 2.979 3.38437 2.979 3.80462C2.979 4.22486 3.31253 4.56553 3.72396 4.56553Z" fill="#4A86E8"/>
<path d="M8.94027 4.56553H25.3293C25.7407 4.56553 26.0742 4.22486 26.0742 3.80462C26.0742 3.38437 25.7407 3.0437 25.3293 3.0437H8.94027C8.52884 3.0437 8.19531 3.38437 8.19531 3.80462C8.19531 4.22486 8.52884 4.56553 8.94027 4.56553Z" fill="#4A86E8"/>
</svg>
