<svg width="16" height="19" viewBox="0 0 16 19" fill="none" xmlns="http://www.w3.org/2000/svg">
<path d="M7.87889 9.15235C9.14802 9.15235 10.247 8.70139 11.1449 7.81164C12.0428 6.92203 12.498 5.83354 12.498 4.57603C12.498 3.31896 12.0428 2.23032 11.1448 1.34043C10.2467 0.450964 9.14787 0 7.87889 0C6.60962 0 5.51095 0.450964 4.61302 1.34057C3.71509 2.23018 3.25977 3.31881 3.25977 4.57603C3.25977 5.83354 3.71509 6.92218 4.61317 7.81178C5.51124 8.70124 6.61006 9.15235 7.87889 9.15235Z" fill="white"/>
<path d="M15.9612 14.61C15.9353 14.2398 15.8829 13.836 15.8058 13.4095C15.728 12.9798 15.6278 12.5737 15.5078 12.2024C15.3839 11.8187 15.2153 11.4398 15.007 11.0767C14.7907 10.6998 14.5367 10.3716 14.2517 10.1016C13.9537 9.81903 13.5887 9.59188 13.1668 9.42619C12.7463 9.26138 12.2803 9.17788 11.7818 9.17788C11.586 9.17788 11.3967 9.25746 11.031 9.49331C10.806 9.6387 10.5428 9.80685 10.249 9.99283C9.99777 10.1514 9.65744 10.3 9.23708 10.4345C8.82697 10.566 8.41056 10.6327 7.99956 10.6327C7.58857 10.6327 7.1723 10.566 6.76175 10.4345C6.34183 10.3001 6.0015 10.1516 5.75057 9.99298C5.45955 9.80874 5.19619 9.64058 4.96779 9.49316C4.60259 9.25732 4.41312 9.17773 4.21735 9.17773C3.71871 9.17773 3.25285 9.26138 2.83249 9.42634C2.41081 9.59173 2.04576 9.81888 1.74743 10.1017C1.46255 10.3719 1.20841 10.6999 0.992447 11.0767C0.784242 11.4398 0.615689 11.8186 0.491614 12.2026C0.371783 12.5738 0.271558 12.9798 0.193719 13.4095C0.116612 13.8354 0.0642318 14.2394 0.0383342 14.6105C0.0128756 14.974 0 15.3513 0 15.7324C0 16.7242 0.318233 17.5272 0.945772 18.1193C1.56556 18.7036 2.38565 19.0001 3.38292 19.0001H12.6171C13.6144 19.0001 14.4341 18.7038 15.0541 18.1193C15.6818 17.5276 16 16.7245 16 15.7323C15.9999 15.3495 15.9868 14.9718 15.9612 14.61Z" fill="white"/>
</svg>
