<svg width="19" height="19" viewBox="0 0 19 19" fill="none" xmlns="http://www.w3.org/2000/svg">
<path d="M2.05646 13.0224C2.05646 14.4819 3.26527 15.6699 4.75446 15.6783C4.16201 15.9639 3.75339 16.5608 3.75339 17.2496C3.75339 18.2148 4.55567 19 5.54183 19C6.528 19 7.33041 18.2148 7.33041 17.2496C7.33041 16.5611 6.92198 15.9644 6.33006 15.6787H13.2358C12.6438 15.9644 12.2355 16.5611 12.2355 17.2496C12.2355 18.2148 13.0379 19 14.024 19C15.0102 19 15.8124 18.2148 15.8124 17.2496C15.8124 16.5611 15.4041 15.9644 14.8122 15.6787H16.286C16.6491 15.6787 16.9434 15.3906 16.9434 15.0353C16.9434 14.68 16.6491 14.3919 16.286 14.3919H4.77015C3.99885 14.3919 3.37124 13.7775 3.37124 13.0224V11.9765C3.78006 12.2182 4.25883 12.3575 4.77015 12.3575H14.0241C15.4553 12.3575 16.8844 11.3024 17.2774 9.95549L18.9747 4.1413C19.0314 3.9472 18.9917 3.73833 18.8674 3.57712C18.7432 3.41591 18.5487 3.32123 18.3426 3.32123H3.37124V2.65635C3.37124 1.19163 2.15386 0 0.657356 0C0.294294 0 0 0.288135 0 0.643441C0 0.998747 0.294294 1.28682 0.657422 1.28682C1.42885 1.28682 2.05646 1.90122 2.05646 2.65642V13.0224Z" fill="white"/>
</svg>
