<svg width="36" height="36" viewBox="0 0 36 36" fill="none" xmlns="http://www.w3.org/2000/svg">
<path d="M35.3818 32.9299H30.5695V2.45188C30.5695 2.29996 30.5135 2.15336 30.4123 2.04011C30.311 1.92685 30.1716 1.85488 30.0206 1.83794L13.7713 0.00388954C13.6848 -0.00585702 13.5973 0.00276392 13.5143 0.0291887C13.4314 0.0556134 13.355 0.0992464 13.2901 0.157233C13.2252 0.215219 13.1733 0.286252 13.1378 0.365685C13.1022 0.445118 13.0839 0.531161 13.0839 0.618184V1.8337H6.04863C5.88468 1.8337 5.72744 1.89883 5.61151 2.01476C5.49558 2.13069 5.43045 2.28793 5.43045 2.45188V32.9299H0.61818C0.454228 32.9299 0.296992 32.9951 0.181061 33.111C0.0651297 33.2269 0 33.3842 0 33.5481C0 33.7121 0.0651297 33.8693 0.181061 33.9852C0.296992 34.1012 0.454228 34.1663 0.61818 34.1663H13.0839V35.3818C13.0839 35.5458 13.149 35.703 13.2649 35.8189C13.3809 35.9349 13.5381 36 13.702 36C13.7257 36.0002 13.7493 35.9989 13.7727 35.9961L29.9867 34.1663H35.3829C35.5468 34.1663 35.704 34.1012 35.82 33.9852C35.9359 33.8693 36.001 33.7121 36.001 33.5481C36.001 33.3842 35.9359 33.2269 35.82 33.111C35.704 32.9951 35.5468 32.9299 35.3829 32.9299H35.3818ZM6.66681 3.07006H13.0839V4.65967H8.87424C8.71029 4.65967 8.55305 4.7248 8.43712 4.84073C8.32119 4.95666 8.25606 5.1139 8.25606 5.27785V32.9299H6.66645L6.66681 3.07006ZM9.49277 32.9299V5.89603H13.0839V32.9299H9.49277ZM14.3202 1.30984L29.3332 3.00542V32.996L14.3202 34.6916V1.30984Z" fill="#4A86E8"/>
<path d="M16.9852 16.1602C16.6214 16.1602 16.2657 16.2681 15.9631 16.4702C15.6606 16.6724 15.4248 16.9597 15.2855 17.2958C15.1463 17.632 15.1099 18.0019 15.1809 18.3588C15.2518 18.7156 15.4271 19.0434 15.6843 19.3007C15.9416 19.558 16.2694 19.7332 16.6263 19.8042C16.9832 19.8752 17.3531 19.8388 17.6892 19.6995C18.0254 19.5603 18.3127 19.3245 18.5149 19.0219C18.717 18.7194 18.8249 18.3637 18.8249 17.9999C18.8244 17.5121 18.6303 17.0445 18.2855 16.6996C17.9406 16.3547 17.473 16.1607 16.9852 16.1602ZM16.9852 18.6032C16.8659 18.6032 16.7492 18.5678 16.65 18.5015C16.5508 18.4352 16.4735 18.341 16.4278 18.2308C16.3821 18.1205 16.3702 17.9992 16.3935 17.8822C16.4167 17.7651 16.4742 17.6576 16.5586 17.5732C16.643 17.4889 16.7505 17.4314 16.8675 17.4081C16.9845 17.3848 17.1059 17.3968 17.2161 17.4424C17.3263 17.4881 17.4206 17.5654 17.4869 17.6647C17.5532 17.7639 17.5886 17.8805 17.5886 17.9999C17.5884 18.1598 17.5247 18.3132 17.4116 18.4263C17.2985 18.5394 17.1452 18.603 16.9852 18.6032Z" fill="#4A86E8"/>
</svg>
