<svg width="36" height="30" viewBox="0 0 36 30" fill="none" xmlns="http://www.w3.org/2000/svg">
<path d="M3.74495 7.52183H5.97982C6.39124 7.52183 6.72477 7.18116 6.72477 6.76092C6.72477 6.34067 6.39124 6 5.97982 6H3.74495C3.33353 6 3 6.34067 3 6.76092C3 7.18116 3.33353 7.52183 3.74495 7.52183Z" fill="#4A86E8"/>
<path d="M34.8583 4.45H29.3848L28.5156 2.71302C28.1359 1.95503 27.3734 1.48333 26.525 1.48333H23.1118L20.6035 0.648217C19.316 0.21805 17.975 0 16.6163 0H2.225C0.998283 0 0 0.998283 0 2.225V8.15833C0 9.38505 0.998283 10.3833 2.225 10.3833H5.80873L4.5034 18.871L1.78 20.915C1.76962 20.9224 1.76813 20.9358 1.75923 20.9447C1.6554 21.0292 1.57827 21.1375 1.53228 21.2665C1.52338 21.2903 1.52338 21.3125 1.51745 21.3377C1.5041 21.3941 1.48333 21.4475 1.48333 21.5083V27.4417C1.48333 28.6684 2.48162 29.6667 3.70833 29.6667H15.575C16.8017 29.6667 17.8 28.6684 17.8 27.4417V21.5083C17.8 21.4905 17.7911 21.4757 17.7896 21.4579C17.7852 21.403 17.7733 21.3511 17.757 21.2992C17.7466 21.2621 17.7392 21.2265 17.7229 21.1924C17.6991 21.1434 17.6665 21.1019 17.6324 21.0589C17.6101 21.0307 17.5938 20.9995 17.5686 20.9758C17.5182 20.9269 17.4573 20.8913 17.3936 20.8571C17.3743 20.8468 17.3594 20.8319 17.3402 20.8245L12.6855 18.8294L13.1883 15.5572C13.2432 15.5676 13.2966 15.575 13.35 15.575C13.6837 15.575 13.9849 15.351 14.0679 15.0128L14.8096 12.0461C14.909 11.6486 14.6672 11.2466 14.2697 11.1473C14.1287 11.1102 13.9908 11.1309 13.8632 11.1725L13.9849 10.3833H16.6163C17.9735 10.3833 19.3145 10.1653 20.6035 9.73512L23.1118 8.9H26.525C27.3734 8.9 28.1359 8.4283 28.5156 7.66883L29.3833 5.93333H34.8583C35.2677 5.93333 35.6 5.60107 35.6 5.19167C35.6 4.78227 35.2677 4.45 34.8583 4.45ZM16.3167 27.4417C16.3167 27.8511 15.9844 28.1833 15.575 28.1833H3.70833C3.29893 28.1833 2.96667 27.8511 2.96667 27.4417V22.25H16.3167V27.4417ZM11.5744 19.9642L13.4449 20.7667H4.45L5.63667 19.8752C5.79242 19.7595 5.89477 19.5859 5.92443 19.3946L7.31135 10.3833H12.4852L11.1339 19.1691C11.082 19.5043 11.2629 19.8307 11.5744 19.9642ZM20.1348 8.32892C18.9985 8.70865 17.8148 8.9 16.6163 8.9H13.3485H6.67352H2.225C1.8156 8.9 1.48333 8.56773 1.48333 8.15833V2.225C1.48333 1.8156 1.8156 1.48333 2.225 1.48333V1.48185H16.6163C17.8148 1.48185 18.9985 1.67468 20.1348 2.05293L22.25 2.759V7.62433L20.1348 8.32892ZM27.188 7.00727C27.0619 7.25943 26.8083 7.41667 26.525 7.41667H23.7348V2.96667H26.525C26.8083 2.96667 27.0619 3.1239 27.188 3.37607L28.0958 5.19167L27.188 7.00727Z" fill="#4A86E8"/>
<path d="M8.15846 2.9668H3.70846C3.29906 2.9668 2.9668 3.29906 2.9668 3.70846C2.9668 4.11786 3.29906 4.45013 3.70846 4.45013H8.15846C8.56786 4.45013 8.90013 4.11786 8.90013 3.70846C8.90013 3.29906 8.56786 2.9668 8.15846 2.9668Z" fill="#4A86E8"/>
</svg>
