<svg width="35" height="32" viewBox="0 0 35 32" fill="none" xmlns="http://www.w3.org/2000/svg">
<path d="M9.53315 29.9316C9.77386 30.6283 10.4227 31.0967 11.1478 31.0967H15.5427C16.2678 31.0967 16.9166 30.6283 17.1573 29.9316C17.3868 29.2657 18.1077 27.7759 18.6672 27.3027C19.1575 26.8869 19.3876 26.2429 19.2669 25.6219C19.1486 25.0109 18.7222 24.5283 18.1266 24.3314C16.3518 23.7429 14.7774 23.941 13.5738 24.9033C13.3579 25.076 13.0681 25.076 12.8523 24.9033C11.6487 23.9416 10.0755 23.7435 8.29943 24.332C7.70386 24.5289 7.27685 25.0109 7.15856 25.6225C7.03791 26.2435 7.26797 26.8875 7.75827 27.3033C8.39169 27.8391 9.36164 29.4348 9.53315 29.9316ZM8.32013 25.8478C8.34142 25.7372 8.41594 25.5397 8.67144 25.4551C9.22147 25.2729 9.73424 25.1824 10.2086 25.1824C10.9384 25.1824 11.576 25.3977 12.1136 25.8277C12.7612 26.3464 13.6661 26.3452 14.3125 25.8277C15.2002 25.118 16.3577 24.9926 17.7546 25.4551C18.0101 25.5397 18.0841 25.7378 18.1053 25.8478C18.145 26.053 18.0693 26.2594 17.9025 26.4008C16.9988 27.1661 16.1909 29.1072 16.0395 29.5466C15.9638 29.7666 15.7639 29.9145 15.5433 29.9145H11.1483C10.9272 29.9145 10.7278 29.7666 10.6521 29.5466C10.4055 28.8322 9.30841 27.0661 8.52358 26.4008C8.35621 26.2588 8.27991 26.0524 8.32013 25.8478Z" fill="#4A86E8"/>
<path d="M18.3734 1.27991C18.3734 0.953437 18.1084 0.688477 17.782 0.688477C17.672 0.688477 17.5744 0.726919 17.4863 0.778965C17.3981 0.726328 17.3006 0.688477 17.1905 0.688477H10.0934C9.76691 0.688477 9.50195 0.953437 9.50195 1.27991C9.50195 1.60638 9.76691 1.87134 10.0934 1.87134H17.1905V2.46277H10.6848C10.3583 2.46277 10.0934 2.72773 10.0934 3.0542C10.0934 3.38067 10.3583 3.64563 10.6848 3.64563H17.7376C18.2675 4.08684 18.9205 4.33938 19.6178 4.33938C20.4073 4.33938 21.1502 4.03124 21.7091 3.47234C21.9403 3.24109 21.9403 2.86731 21.7091 2.63606C21.4778 2.40481 21.104 2.40481 20.8728 2.63606C20.2045 3.30437 19.0465 3.30615 18.3734 2.64434V1.27991Z" fill="#4A86E8"/>
<path d="M12.4597 8.37695C8.66805 8.37695 4.17969 13.1859 4.17969 17.2484C4.17969 17.5749 4.44465 17.8398 4.77112 17.8398C5.09759 17.8398 5.36255 17.5749 5.36255 17.2484C5.36255 13.8713 9.34228 9.55981 12.4597 9.55981C12.7862 9.55981 13.0511 9.29485 13.0511 8.96838C13.0511 8.64191 12.7862 8.37695 12.4597 8.37695Z" fill="#4A86E8"/>
<path d="M29.0188 11.9254C28.4091 11.9254 27.6828 11.9609 26.9506 12.0443C26.154 10.5858 25.1036 9.3314 23.7776 8.31591L19.5181 5.42086C18.8137 4.88029 17.7036 4.23682 16.4155 4.23682H11.8159C10.678 4.23682 9.55901 4.6242 8.68133 5.3144L4.49518 8.36441C0.132201 11.7947 -1.24879 17.806 1.21215 22.6581C2.10758 24.4235 3.60331 26.5568 5.64847 26.6952C5.80875 26.7059 5.9708 26.7118 6.13404 26.7118H17.6427C18.5109 27.7917 19.8398 28.4861 21.3303 28.4861C23.0442 28.4861 24.5441 27.5664 25.3745 26.1978C26.4313 26.5261 27.7272 26.7118 29.0188 26.7118C31.863 26.7118 34.9332 25.8075 34.9332 24.346V21.0932H34.8864C34.9148 20.9974 34.9332 20.8992 34.9332 20.7975V17.2489V13.996C34.9332 12.3613 31.2154 11.9254 29.0188 11.9254ZM33.7053 13.9901C33.6929 14.0025 33.6829 14.0149 33.6657 14.0285C33.6427 14.0469 33.6149 14.0664 33.5835 14.0865C33.5445 14.1113 33.4972 14.1374 33.4457 14.1634C33.4037 14.1847 33.3599 14.2066 33.3097 14.2284C33.2476 14.2562 33.1742 14.284 33.0991 14.3124C33.0388 14.3349 32.9779 14.3574 32.9093 14.3804C32.8229 14.4088 32.7236 14.4372 32.6236 14.465C32.5455 14.4869 32.4687 14.5094 32.3823 14.5307C32.2699 14.5585 32.1434 14.5839 32.0174 14.6093C31.9222 14.6288 31.8317 14.6489 31.7288 14.6673C31.5868 14.6921 31.4283 14.7134 31.2716 14.7347C31.1646 14.7495 31.0646 14.7661 30.9505 14.7791C30.7642 14.8004 30.5589 14.8151 30.3543 14.8299C30.2502 14.8376 30.1556 14.8483 30.0468 14.8548C29.7238 14.8725 29.382 14.8832 29.0171 14.8832C28.6522 14.8832 28.3103 14.8725 27.9874 14.8548C27.8786 14.8489 27.7839 14.8382 27.6798 14.8299C27.4752 14.8146 27.27 14.7998 27.0837 14.7791C26.9695 14.7661 26.8696 14.7495 26.7625 14.7347C26.6058 14.7134 26.4473 14.6921 26.3054 14.6673C26.2025 14.6489 26.112 14.6288 26.0167 14.6093C25.8908 14.5833 25.7642 14.5579 25.6518 14.5307C25.5655 14.5094 25.4892 14.4875 25.4105 14.465C25.3106 14.4372 25.2118 14.4088 25.1249 14.3804C25.0563 14.358 24.9953 14.3349 24.935 14.3124C24.8599 14.284 24.7866 14.2562 24.7245 14.2284C24.6742 14.2066 24.6304 14.1847 24.5884 14.1634C24.537 14.1368 24.4897 14.1107 24.4506 14.0865C24.4193 14.0664 24.3915 14.0475 24.3684 14.0285C24.3525 14.0161 24.3436 14.0049 24.3318 13.9931C24.3389 13.9871 24.3436 13.9812 24.3519 13.9747C24.3738 13.9564 24.4051 13.9357 24.4359 13.9156C24.4838 13.8842 24.5435 13.8511 24.6139 13.8156C24.6523 13.7961 24.6902 13.7772 24.7351 13.7577C24.7818 13.737 24.8357 13.7163 24.8895 13.695C24.9534 13.6701 25.0231 13.6453 25.0971 13.6205C25.1503 13.6027 25.2018 13.5844 25.2609 13.5666C25.3934 13.5264 25.5383 13.4868 25.6974 13.4483C25.7707 13.4306 25.8559 13.4146 25.9357 13.3981C26.0321 13.3774 26.1309 13.3573 26.2356 13.3383C26.3509 13.3176 26.4733 13.2981 26.5999 13.2792C27.2664 13.1787 28.0643 13.1089 29.0159 13.1089C31.811 13.1083 33.3741 13.6849 33.7053 13.9901ZM24.6866 18.8558C24.7398 18.8783 24.7948 18.8996 24.8504 18.9214C24.9534 18.9617 25.0586 18.9995 25.1675 19.0368C25.2248 19.0563 25.281 19.0752 25.3396 19.0936C25.4643 19.1326 25.5927 19.1687 25.724 19.2036C25.7701 19.216 25.8145 19.2296 25.8612 19.2408C26.0404 19.2858 26.2237 19.3272 26.4118 19.3638C26.4509 19.3715 26.4917 19.3774 26.5313 19.3851C26.6821 19.4135 26.8347 19.4395 26.9896 19.4626C27.0559 19.4727 27.1227 19.4809 27.1896 19.4898C27.3226 19.5076 27.4563 19.5235 27.5917 19.5377C27.6627 19.5448 27.7337 19.5519 27.8046 19.5584C27.9442 19.5708 28.0844 19.5803 28.2251 19.5886C28.2878 19.5921 28.3505 19.5969 28.4132 19.5998C28.6155 19.6087 28.8172 19.6146 29.0183 19.6146C29.2193 19.6146 29.421 19.6087 29.6233 19.5998C29.6872 19.5969 29.751 19.5921 29.8149 19.5886C29.9539 19.5803 30.0929 19.5708 30.2313 19.559C30.304 19.5525 30.3768 19.5454 30.4489 19.5377C30.582 19.5241 30.7139 19.5081 30.8452 19.4904C30.9138 19.4815 30.9824 19.4727 31.0504 19.4626C31.203 19.4401 31.3532 19.4141 31.5017 19.3863C31.5437 19.3786 31.5862 19.3721 31.6282 19.3638C31.8151 19.3266 31.9979 19.2858 32.1759 19.2414C32.2256 19.229 32.2729 19.2148 32.322 19.2018C32.4503 19.1675 32.5763 19.132 32.6981 19.0936C32.7579 19.0746 32.8152 19.0551 32.8732 19.0356C32.9814 18.9989 33.0867 18.9605 33.189 18.9209C33.244 18.8996 33.299 18.8777 33.3523 18.8552C33.4587 18.8103 33.5598 18.7629 33.6574 18.7144C33.6882 18.6991 33.7231 18.6861 33.7527 18.6707L33.7562 20.7549C33.6172 21.0914 32.089 21.8413 29.6777 21.9614C29.4612 21.9691 29.2519 21.9797 29.0183 21.9797C27.7153 21.9797 26.4284 21.7798 25.4454 21.4285C25.4419 21.4226 25.4377 21.4167 25.4342 21.4108C25.3644 21.2889 25.2905 21.1701 25.2106 21.0553C25.1988 21.0382 25.1852 21.0222 25.1728 21.0051C25.0988 20.9016 25.0226 20.8004 24.9403 20.7034C24.9155 20.6744 24.8889 20.6478 24.8635 20.6188C24.7907 20.5366 24.7174 20.4556 24.6393 20.3787C24.5991 20.3391 24.5559 20.3036 24.5145 20.2652C24.4459 20.2025 24.3785 20.1398 24.3069 20.0812C24.2998 20.0753 24.2939 20.0688 24.2868 20.0635C24.2868 19.8322 24.2874 19.3183 24.288 18.6719C24.3182 18.6878 24.3542 18.7014 24.385 18.7168C24.4826 18.7647 24.5819 18.8114 24.6866 18.8558ZM16.8732 25.5283H6.13404C5.99742 25.5283 5.86139 25.5236 5.72713 25.5147C4.56497 25.436 3.33598 24.2313 2.26667 22.1229C0.0600457 17.7723 1.30501 12.3767 5.20845 9.30715L9.39459 6.25714C10.0818 5.71717 10.9418 5.41968 11.8153 5.41968H16.4149C17.3712 5.41968 18.2383 5.93067 18.8255 6.37957L23.085 9.27403C24.1431 10.0855 25.0249 11.0779 25.7139 12.2318C24.9652 12.3861 24.2413 12.6215 23.7439 12.9669C23.7303 12.9764 23.7167 12.9858 23.7031 12.9953C23.628 13.0497 23.5594 13.1071 23.4967 13.1674C23.47 13.1928 23.4464 13.2189 23.4221 13.2455C23.3754 13.2969 23.3305 13.349 23.2938 13.4046C23.263 13.4501 23.2406 13.4992 23.2169 13.5477C23.1962 13.5915 23.1714 13.6335 23.1566 13.6796C23.1241 13.7795 23.1039 13.8842 23.1039 13.9954V17.2483V19.3709C22.9046 19.2899 22.6982 19.2248 22.4865 19.1716C22.4587 19.1645 22.4309 19.1568 22.4031 19.1503C22.1961 19.1018 21.985 19.0652 21.7691 19.0451C21.7448 19.0427 21.7206 19.0433 21.6963 19.0415C21.5751 19.032 21.4533 19.0232 21.3297 19.0232C21.2646 19.0232 21.2019 19.0303 21.1374 19.0326C21.0872 19.0344 21.0369 19.0368 20.9866 19.0403C20.7761 19.0557 20.5679 19.0799 20.3656 19.1219C20.3615 19.1225 20.3579 19.1225 20.3538 19.1237C20.3378 19.1273 20.323 19.1338 20.3071 19.1373C20.122 19.1781 19.9416 19.2319 19.7653 19.2946C19.7015 19.3171 19.6376 19.3396 19.5749 19.3644C19.3992 19.4348 19.2277 19.5129 19.0627 19.6034C19.0006 19.6371 18.9426 19.6761 18.8823 19.7128C18.767 19.7832 18.6546 19.8571 18.5464 19.9369C18.4825 19.9837 18.418 20.0292 18.3565 20.0789C18.2176 20.1912 18.0851 20.3113 17.9597 20.4391C17.9047 20.4946 17.8544 20.5538 17.8024 20.6123C17.7137 20.7117 17.6291 20.8152 17.5492 20.9217C17.5061 20.9796 17.4605 21.0346 17.4197 21.0944C17.3156 21.2464 17.2228 21.406 17.137 21.5699C17.1039 21.6337 17.0737 21.6988 17.043 21.7645C16.9755 21.9094 16.9152 22.0572 16.8626 22.2098C16.8472 22.2542 16.8283 22.2961 16.8147 22.3411C16.7538 22.5351 16.7094 22.7362 16.6739 22.9396C16.6692 22.9656 16.6597 22.9905 16.6556 23.0165C16.6509 23.0484 16.6509 23.0827 16.6467 23.1147C16.6278 23.2537 16.616 23.3944 16.6095 23.537C16.6071 23.5878 16.6024 23.6381 16.6018 23.6896C16.6018 23.7114 16.5982 23.7327 16.5982 23.7546C16.5982 23.8487 16.6071 23.9403 16.6124 24.0326C16.6355 24.5436 16.7189 25.0569 16.8732 25.5283ZM21.3303 27.3026C19.3874 27.3026 17.8065 25.7329 17.784 23.796C17.784 23.7499 17.7852 23.7043 17.787 23.6582C17.7888 23.5932 17.7917 23.5287 17.797 23.4642C17.8012 23.4098 17.8077 23.356 17.8142 23.3022C17.8213 23.2472 17.8296 23.1928 17.839 23.1389C17.8657 22.9852 17.9 22.8332 17.9467 22.6859C17.9514 22.6699 17.9585 22.6551 17.9638 22.6398C18.0135 22.4913 18.0732 22.3464 18.1424 22.2062C18.1489 22.1926 18.1555 22.179 18.162 22.166C18.4807 21.5403 18.984 21.0116 19.5938 20.6632C19.5962 20.662 19.5979 20.6602 19.6003 20.6591C19.7387 20.5804 19.8842 20.5142 20.0321 20.455C20.0705 20.4396 20.1095 20.426 20.148 20.4124C20.2793 20.3657 20.4129 20.3249 20.5507 20.2947C20.5697 20.2906 20.5874 20.2841 20.6063 20.2806C20.7773 20.2457 20.9488 20.2267 21.1197 20.2167C21.1522 20.2149 21.1848 20.2125 21.2179 20.2119C21.3923 20.2066 21.5662 20.2114 21.7377 20.2315C21.7478 20.2326 21.7573 20.2344 21.7667 20.2362C21.9477 20.2587 22.1269 20.2947 22.3032 20.3456C22.3055 20.3462 22.3085 20.3468 22.3108 20.3474C22.4924 20.4 22.6704 20.468 22.8443 20.5502C23.004 20.6259 23.1595 20.7105 23.305 20.8081L23.3287 20.8247C23.3494 20.8389 23.3683 20.8548 23.3884 20.869C23.4866 20.9394 23.5806 21.0139 23.6711 21.0938C23.693 21.1127 23.7143 21.1328 23.7356 21.1523C23.8261 21.2363 23.9124 21.3238 23.9935 21.4161C24.0017 21.4256 24.01 21.4338 24.0183 21.4433C24.2064 21.6621 24.3684 21.904 24.4985 22.1637C24.5287 22.2228 24.5589 22.2825 24.5855 22.3435C24.6304 22.447 24.6695 22.5516 24.7044 22.6575C24.7067 22.6652 24.7103 22.6729 24.7126 22.6806C24.7469 22.7876 24.7747 22.8965 24.7984 23.0059C24.8002 23.0147 24.8031 23.023 24.8049 23.0313C24.8274 23.1401 24.8439 23.2501 24.8564 23.3607C24.8575 23.3708 24.8599 23.3796 24.8611 23.3897C24.8735 23.5104 24.88 23.6316 24.88 23.754C24.88 23.8794 24.8729 24.0042 24.8599 24.1284C24.8581 24.1467 24.854 24.1639 24.8516 24.1822C24.8386 24.2893 24.8226 24.3957 24.7996 24.5004C24.7972 24.5122 24.7931 24.5235 24.7907 24.5353C24.7653 24.6477 24.7351 24.7589 24.6984 24.8689C24.6967 24.8736 24.6949 24.8783 24.6931 24.8831C24.6541 24.9978 24.6091 25.1108 24.5583 25.2225C23.997 26.4474 22.7627 27.3026 21.3303 27.3026ZM29.0188 25.5283C27.8963 25.5283 26.7791 25.3787 25.8612 25.1108C25.8618 25.1096 25.8618 25.1084 25.8618 25.1072C25.9192 24.9156 25.9611 24.7181 25.9943 24.517C26.002 24.4691 26.0096 24.4217 26.0162 24.3732C26.0428 24.1698 26.0617 23.9646 26.0617 23.754C26.0617 23.6008 26.0534 23.4488 26.0386 23.298C26.0333 23.2436 26.0238 23.191 26.0167 23.1372C26.0067 23.0609 25.9996 22.984 25.986 22.9089C26.8832 23.0745 27.9253 23.1626 29.0188 23.1626C30.4324 23.1626 32.4758 22.9822 33.7527 22.418L33.7562 24.3035C33.6048 24.6696 31.8098 25.5283 29.0188 25.5283ZM29.0188 18.4311C26.2373 18.4311 24.4465 17.5789 24.2904 17.2518C24.291 16.5776 24.2915 15.8933 24.2915 15.3232C24.3063 15.3297 24.3241 15.335 24.3394 15.3415C24.4808 15.4018 24.6287 15.4586 24.786 15.5107C24.7943 15.5136 24.8025 15.5166 24.8114 15.5189C24.9723 15.571 25.142 15.6177 25.3153 15.6609C25.3721 15.6751 25.4306 15.6881 25.4886 15.7011C25.6152 15.7301 25.7429 15.7579 25.8736 15.7827C25.9369 15.7951 25.9996 15.807 26.0635 15.8182C26.2072 15.8436 26.3515 15.8661 26.4976 15.8874C26.5437 15.8939 26.5892 15.9016 26.6354 15.9081C26.8264 15.9335 27.0174 15.956 27.2073 15.9743C27.2552 15.9791 27.3019 15.9826 27.3498 15.9868C27.4959 15.9998 27.6402 16.0116 27.7833 16.0211C27.8454 16.0252 27.9058 16.0288 27.9667 16.0323C28.0992 16.04 28.2281 16.0459 28.3559 16.0506C28.4097 16.0524 28.4635 16.0548 28.5161 16.0566C28.6894 16.0613 28.8586 16.0642 29.0183 16.0642C29.1773 16.0642 29.3465 16.0613 29.5198 16.0566C29.5736 16.0548 29.628 16.0524 29.6824 16.0506C29.809 16.0459 29.9373 16.04 30.0692 16.0323C30.1313 16.0288 30.1922 16.0252 30.2549 16.0211C30.3981 16.0116 30.543 15.9998 30.689 15.9862C30.7364 15.982 30.7825 15.9785 30.8298 15.9738C31.0202 15.9548 31.2113 15.9329 31.4023 15.9069C31.449 15.9004 31.4952 15.8927 31.5419 15.8862C31.6874 15.8655 31.8317 15.8425 31.9748 15.817C32.0393 15.8058 32.102 15.7934 32.1653 15.7815C32.296 15.7561 32.4243 15.7289 32.5515 15.6993C32.6094 15.6857 32.6674 15.6733 32.7242 15.6591C32.901 15.6148 33.0737 15.5674 33.2375 15.5142C33.2458 15.5113 33.2529 15.5083 33.2612 15.5059C33.4155 15.4551 33.5616 15.3989 33.7006 15.3397C33.7172 15.3326 33.7367 15.3267 33.7532 15.3196L33.7568 17.2051C33.6048 17.5724 31.8098 18.4311 29.0188 18.4311Z" fill="#4A86E8"/>
</svg>
