<svg width="19" height="20" viewBox="0 0 19 20" fill="none" xmlns="http://www.w3.org/2000/svg">
<path d="M12.6885 2.17396C9.78983 -0.724655 5.07211 -0.724655 2.17349 2.17396C-0.724498 5.07321 -0.724498 9.7903 2.17349 12.6895C4.75479 15.2702 8.77503 15.5467 11.6718 13.5316C11.7327 13.82 11.8722 14.0952 12.0965 14.3195L16.3179 18.5408C16.933 19.1547 17.9271 19.1547 18.5391 18.5408C19.1536 17.9263 19.1536 16.9322 18.5391 16.3196L14.3178 12.097C14.0947 11.8746 13.8189 11.7344 13.5305 11.6735C15.5469 8.77613 15.2704 4.75652 12.6885 2.17396ZM11.3557 11.3568C9.19163 13.5209 5.66968 13.5209 3.50624 11.3568C1.34343 9.19273 1.34343 5.67141 3.50624 3.50734C5.66968 1.3439 9.19163 1.3439 11.3557 3.50734C13.5198 5.67141 13.5198 9.19273 11.3557 11.3568Z" fill="white"/>
</svg>
