<svg width="17" height="17" viewBox="0 0 17 17" fill="none" xmlns="http://www.w3.org/2000/svg">
<path d="M4.83475 4.22525L4.44912 4.60708C4.22706 4.82622 4.07837 5.10873 4.02352 5.41577C3.96866 5.72281 4.01032 6.0393 4.14277 6.3217C5.51748 9.17995 7.82436 11.4856 10.6841 12.8596C10.9666 12.9907 11.2827 13.0313 11.5892 12.9759C11.8957 12.9204 12.1775 12.7716 12.396 12.5498L12.7817 12.168C12.9217 12.0229 13 11.8292 13 11.6277C13 11.4261 12.9217 11.2324 12.7817 11.0873L11.6572 9.94546C11.5121 9.80548 11.3183 9.72725 11.1166 9.72725C10.9149 9.72725 10.7211 9.80548 10.576 9.94546L10 10C8.51525 9.20274 7.79769 8.48396 7 7L7.05484 6.44417C7.20032 6.29833 7.28201 6.10079 7.28201 5.89485C7.28201 5.68891 7.20032 5.49137 7.05484 5.34553L5.93038 4.22525C5.78461 4.08095 5.58774 4 5.38257 4C5.1774 4 4.98052 4.08095 4.83475 4.22525Z" fill="#3964AB"/>
<path d="M0.70565 16.9999C0.518204 16.9991 0.338526 16.925 0.204952 16.7935C0.117993 16.7055 0.0555413 16.5963 0.0237855 16.4767C-0.00797031 16.3571 -0.00792774 16.2313 0.023909 16.1118L1.15543 11.9736C0.296279 10.2 0.0931221 8.1794 0.581991 6.27027C1.07086 4.36113 2.22016 2.68683 3.82603 1.54432C5.43191 0.401811 7.39058 -0.135059 9.35463 0.0289332C11.3187 0.192925 13.1612 1.04718 14.5553 2.44018C15.9494 3.83318 16.8051 5.67489 16.9706 7.63866C17.136 9.60242 16.6005 11.5613 15.4591 13.1679C14.3176 14.7745 12.644 15.9249 10.7351 16.4151C8.82617 16.9053 6.80528 16.7037 5.03089 15.8459L0.892351 16.9773C0.831402 16.9931 0.768614 17.0007 0.70565 16.9999ZM8.6659 1.40325C7.47362 1.40604 6.3022 1.71622 5.2648 2.30382C4.2274 2.89143 3.35907 3.7366 2.74368 4.75771C2.12829 5.77882 1.78664 6.94135 1.75172 8.13303C1.71681 9.3247 1.98982 10.5052 2.54437 11.5606C2.62852 11.7196 2.64973 11.9044 2.60378 12.0782L1.7127 15.2858L4.92056 14.4146C5.09326 14.3691 5.27671 14.3893 5.43541 14.4712C6.3659 14.9589 7.3951 15.2286 8.44519 15.2601C9.49528 15.2915 10.5388 15.0839 11.4968 14.6528C12.4548 14.2217 13.3023 13.5785 13.9752 12.7718C14.6481 11.9651 15.1287 11.0159 15.3808 9.99616C15.6329 8.97638 15.6499 7.91263 15.4304 6.88534C15.2109 5.85805 14.7607 4.8941 14.1139 4.06636C13.467 3.23861 12.6404 2.56874 11.6966 2.10738C10.7528 1.64601 9.71646 1.40524 8.6659 1.40325Z" fill="#3964AB"/>
</svg>
